{"title":"Streets Of Blood-AVM","uid":5045261,"size":261973229,"categoryP":"video","categoryS":"handheld","magnet":"?xt=urn:btih:cd5371b2fff557b8fe0650ebc222facd7105c1ac&amp;dn=Streets+Of+Blood-AVM&amp;tr=udp%3A%2F%2Ftracker.openbittorrent.com%3A80&amp;tr=udp%3A%2F%2Fopen.demonii.com%3A1337&amp;tr=udp%3A%2F%2Ftracker.coppersurfer.tk%3A6969&amp;tr=udp%3A%2F%2Fexodus.desync.com%3A6969","seeders":0,"leechers":0,"uploader":"AVIDM","files":1,"time":1249593793,"description":"AVIDMobile - http://www.avidmobile.com.ar (Mobile media)\n\nVideo\nID                               : 1\nFormat                           : MPEG-4 Visual\nFormat profile                   : Advanced Simple@L5\nFormat settings, BVOP            : Yes\nFormat settings, QPel            : No\nFormat settings, GMC             : No warppoints\nFormat settings, Matrix          : Default (H.263)\nCodec ID                         : 20\nDuration                         : 1h 34mn\nBit rate mode                    : Variable\nBit rate                         : 302 Kbps\nMaximum bit rate                 : 1 529 Kbps\nWidth                            : 320 pixels\nHeight                           : 240 pixels\nDisplay aspect ratio             : 4/3\nFrame rate mode                  : Variable\nFrame rate                       : 23.976 fps\nMinimum frame rate               : 23.974 fps\nMaximum frame rate               : 23.981 fps\nResolution                       : 24 bits\nColorimetry                      : 4:2:0\nScan type                        : Progressive\nBits/(Pixel*Frame)               : 0.164\nStream size                      : 205 MiB (82%)\n\nAudio\nID                               : 2\nFormat                           : AAC\nFormat/Info                      : Advanced Audio Codec\nFormat version                   : Version 4\nFormat profile                   : LC\nFormat settings, SBR             : No\nCodec ID                         : 40\nDuration                         : 1h 34mn\nBit rate mode                    : Variable\nBit rate                         : 62.8 Kbps\nMaximum bit rate                 : 115 Kbps\nChannel(s)                       : 2 channels\nChannel positions                : L R\nSampling rate                    : 22.05 KHz\nResolution                       : 16 bits\nStream size                      : 42.6 MiB (17%)","torrent":{"xt":"urn:btih:cd5371b2fff557b8fe0650ebc222facd7105c1ac","amp;dn":"Streets+Of+Blood-AVM","amp;tr":["udp%3A%2F%2Ftracker.openbittorrent.com%3A80","udp%3A%2F%2Fopen.demonii.com%3A1337","udp%3A%2F%2Ftracker.coppersurfer.tk%3A6969","udp%3A%2F%2Fexodus.desync.com%3A6969"],"infoHash":"cd5371b2fff557b8fe0650ebc222facd7105c1ac","infoHashBuffer":{"type":"Buffer","data":[205,83,113,178,255,245,87,184,254,6,80,235,194,34,250,205,113,5,193,172]},"announce":[],"urlList":[]}}